<?xml version="1.0" encoding="UTF-8" standalone="no"?>
<!-- Created with Inkscape (http://www.inkscape.org/) -->

<svg
   xmlns:dc="http://purl.org/dc/elements/1.1/"
   xmlns:cc="http://creativecommons.org/ns#"
   xmlns:rdf="http://www.w3.org/1999/02/22-rdf-syntax-ns#"
   xmlns:svg="http://www.w3.org/2000/svg"
   xmlns="http://www.w3.org/2000/svg"
   xmlns:sodipodi="http://sodipodi.sourceforge.net/DTD/sodipodi-0.dtd"
   xmlns:inkscape="http://www.inkscape.org/namespaces/inkscape"
   width="240.52274mm"
   height="74.462616mm"
   viewBox="0 0 852.24582 263.84393"
   id="svg2"
   version="1.1"
   inkscape:version="0.92.3 (2405546, 2018-03-11)"
   sodipodi:docname="anyscript_logo_community.svg"
   inkscape:export-filename="C:\Users\mel\Desktop\full.png"
   inkscape:export-xdpi="40.891129"
   inkscape:export-ydpi="40.891129">
  <defs
     id="defs4" />
  <sodipodi:namedview
     id="base"
     pagecolor="#ffffff"
     bordercolor="#666666"
     borderopacity="1.0"
     inkscape:pageopacity="0.0"
     inkscape:pageshadow="2"
     inkscape:zoom="0.43904691"
     inkscape:cx="407.02253"
     inkscape:cy="-103.60013"
     inkscape:document-units="px"
     inkscape:current-layer="layer1-0"
     showgrid="false"
     showguides="true"
     inkscape:guide-bbox="true"
     fit-margin-top="3"
     fit-margin-left="3"
     fit-margin-right="3"
     fit-margin-bottom="3"
     inkscape:window-width="1920"
     inkscape:window-height="1001"
     inkscape:window-x="372"
     inkscape:window-y="1791"
     inkscape:window-maximized="1"
     inkscape:snap-global="false">
    <sodipodi:guide
       position="216.72499,-11.156264"
       orientation="0,1"
       id="guide4220"
       inkscape:locked="false" />
    <sodipodi:guide
       position="407.73178,-11.156264"
       orientation="0,1"
       id="guide4224"
       inkscape:locked="false" />
    <sodipodi:guide
       position="173.7671,221.00831"
       orientation="0,1"
       id="guide4226"
       inkscape:locked="false" />
    <sodipodi:guide
       position="898.96435,100.35944"
       orientation="0,1"
       id="guide4236"
       inkscape:locked="false" />
    <sodipodi:guide
       position="271.18402,553.04458"
       orientation="1,0"
       id="guide4280"
       inkscape:locked="false" />
    <sodipodi:guide
       position="850.89177,517.57932"
       orientation="1,0"
       id="guide4282"
       inkscape:locked="false" />
    <sodipodi:guide
       position="10.450841,96.080316"
       orientation="1,0"
       id="guide1293"
       inkscape:locked="false" />
  </sodipodi:namedview>
  <metadata
     id="metadata7">
    <rdf:RDF>
      <cc:Work
         rdf:about="">
        <dc:format>image/svg+xml</dc:format>
        <dc:type
           rdf:resource="http://purl.org/dc/dcmitype/StillImage" />
        <dc:title></dc:title>
      </cc:Work>
    </rdf:RDF>
  </metadata>
  <g
     inkscape:label="Layer 1"
     inkscape:groupmode="layer"
     id="layer1"
     transform="translate(1.8423758,-22.885266)">
    <g
       transform="translate(-35.397959,-83.543981)"
       id="layer1-0"
       inkscape:label="Layer 1">
      <text
         xml:space="preserve"
         style="font-style:normal;font-variant:normal;font-weight:normal;font-stretch:normal;line-height:0%;font-family:'Trebuchet MS';-inkscape-font-specification:'Trebuchet MS, Normal';text-align:start;letter-spacing:0px;word-spacing:0px;writing-mode:lr-tb;text-anchor:start;fill:#a7a6a6;fill-opacity:1;stroke:#a7a6a6;stroke-width:1.02433228px;stroke-linecap:butt;stroke-linejoin:miter;stroke-opacity:1"
         x="366.61069"
         y="277.65286"
         id="text4196"
         transform="scale(1.0436848,0.95814369)"><tspan
           sodipodi:role="line"
           id="tspan4198"
           x="366.61069"
           y="281.04147"
           style="font-style:normal;font-variant:normal;font-weight:normal;font-stretch:normal;font-size:211.26852417px;line-height:125%;font-family:'Trebuchet MS';-inkscape-font-specification:'Trebuchet MS, Normal';text-align:start;writing-mode:lr-tb;text-anchor:start;fill:#a7a6a6;fill-opacity:1;stroke:#a7a6a6;stroke-width:1.02433228px;stroke-opacity:1" /></text>
      <g
         id="g1498"
         inkscape:export-filename="C:\Users\mel\Desktop\g1498.png"
         inkscape:export-xdpi="40.891129"
         inkscape:export-ydpi="40.891129"
         transform="matrix(0.77392519,0,0,0.77392519,-0.88563553,80.252612)">
        <text
           id="text4186"
           y="170.27975"
           x="978.16956"
           style="font-style:normal;font-variant:normal;font-weight:normal;font-stretch:normal;line-height:0%;font-family:sans-serif;-inkscape-font-specification:'Sans, Normal';text-align:start;letter-spacing:0px;word-spacing:0px;writing-mode:lr-tb;text-anchor:start;fill:#999999;fill-opacity:1;stroke:#999999;stroke-width:1px;stroke-linecap:butt;stroke-linejoin:miter;stroke-opacity:1"
           xml:space="preserve"><tspan
             style="font-style:normal;font-variant:normal;font-weight:normal;font-stretch:normal;font-size:25.46500015px;line-height:125%;font-family:sans-serif;-inkscape-font-specification:'Sans, Normal';text-align:start;writing-mode:lr-tb;text-anchor:start;fill:#999999;fill-opacity:1;stroke:#999999;stroke-opacity:1"
             y="170.27975"
             x="978.16956"
             id="tspan4188"
             sodipodi:role="line">TM</tspan></text>
        <text
           id="text4200-3"
           y="262.82462"
           x="386.17035"
           style="font-style:normal;font-variant:normal;font-weight:normal;font-stretch:normal;font-size:15.12031746px;line-height:0%;font-family:Corbel;-inkscape-font-specification:'Corbel, Normal';text-align:start;letter-spacing:0px;word-spacing:0px;writing-mode:lr-tb;text-anchor:start;fill:#999999;fill-opacity:1;stroke:#999999;stroke-width:1.38578475px;stroke-linecap:butt;stroke-linejoin:miter;stroke-opacity:1"
           xml:space="preserve"
           transform="scale(0.97879508,1.0216643)"><tspan
             style="font-style:normal;font-variant:normal;font-weight:normal;font-stretch:normal;font-size:221.7331543px;line-height:125%;font-family:Corbel;-inkscape-font-specification:'Corbel, Normal';font-variant-ligatures:normal;font-variant-caps:small-caps;font-variant-numeric:normal;font-feature-settings:normal;text-align:start;writing-mode:lr-tb;text-anchor:start;fill:#999999;fill-opacity:1;stroke:#999999;stroke-width:1.38578475px;stroke-opacity:1"
             y="262.82462"
             x="386.17035"
             id="tspan4202-2"
             sodipodi:role="line">Script</tspan></text>
        <path
           inkscape:connector-curvature="0"
           id="path143"
           style="fill:#953337;fill-opacity:1;fill-rule:evenodd;stroke-width:2.97847247"
           d="m 248.26641,149.18912 h -14.28207 c -0.78275,0 -1.36951,0.39137 -1.95656,0.78274 -0.58706,0.58676 -0.78245,1.17382 -0.78245,1.95656 l 0.58676,82.95403 -38.73801,-83.93246 c -0.19569,-0.58675 -0.39137,-1.17381 -0.97813,-1.3695 -0.19569,-0.39137 -0.78274,-0.39137 -1.3695,-0.39137 h -17.99951 c -0.78274,0 -1.3698,0.39137 -1.76087,0.78274 -0.58706,0.58676 -0.97843,1.17382 -0.97843,1.95656 v 113.27935 c 0,0.58706 0.39137,1.3695 0.97843,1.95656 0.39107,0.58676 0.97813,0.78244 1.76087,0.78244 h 14.47776 c 0.78245,0 1.3695,-0.19568 1.95656,-0.78244 0.39107,-0.58706 0.78244,-1.3695 0.78244,-1.95656 l -0.78244,-82.56296 38.73801,83.73678 c 0,0.58705 0.58676,0.78274 0.78245,0.97842 0.58705,0.39108 1.17411,0.58676 1.76087,0.58676 h 17.80382 c 0.97843,0 1.3695,-0.19568 1.95656,-0.78244 0.58705,-0.58706 0.78244,-1.3695 0.78244,-1.95656 V 151.92842 c 0,-0.78274 -0.19539,-1.3698 -0.78244,-1.95656 -0.58706,-0.39137 -0.97813,-0.78274 -1.95656,-0.78274 z" />
        <path
           inkscape:connector-curvature="0"
           id="path145"
           style="fill:#952c36;fill-opacity:1;fill-rule:evenodd;stroke-width:2.97847247"
           d="m 301.28679,147.81962 c -0.58706,-0.78244 -0.97813,-0.97813 -1.56519,-1.3695 -0.78244,-0.19569 -1.3695,-0.19569 -2.15224,0.39137 l -13.69502,7.04319 c -0.78274,0.19569 -1.3698,0.78275 -1.3698,1.56519 -0.19538,0.78274 -0.19538,1.3695 0.39138,2.15225 l 36.19469,64.75913 v 42.84652 c 0,0.58706 0.19569,1.3695 0.78274,1.95656 0.39108,0.58676 0.97813,0.78244 1.76058,0.78244 h 14.47805 c 0.78245,0 1.36951,-0.19568 1.95626,-0.78244 0.58706,-0.58706 0.78275,-1.3695 0.78275,-1.95656 v -42.84652 l 36.39038,-64.75913 c 0.19568,-0.39138 0.19568,-0.97843 0.19568,-1.36951 0,-0.39137 0,-0.97842 -0.19568,-1.3695 -0.19569,-0.39137 -0.78275,-0.78274 -1.17382,-0.97843 l -13.69531,-7.04319 c -0.58706,-0.58706 -1.3695,-0.58706 -1.95656,-0.39137 -0.78274,0.39137 -1.3695,0.58706 -1.56519,1.3695 l -27.782,53.60744 z" />
        <path
           inkscape:connector-curvature="0"
           id="path147"
           style="fill:#953337;fill-opacity:1;fill-rule:evenodd;stroke-width:2.97847247"
           d="m 81.770993,118.08136 c -0.587056,0.39137 -0.782444,0.78274 -1.173816,1.56519 L 44.011112,263.4469 v 1.67628 c 0.05004,0.15161 0.113182,0.31036 0.195685,0.47596 0.391372,0.39137 0.978131,0.97813 1.760873,0.97813 l 14.282073,4.1088 c 0.391372,0 0.782743,0.39108 1.3698,0 0.391073,0 0.782444,-0.19568 1.369501,-0.78274 0.391074,-0.19568 0.586759,-0.78244 0.586759,-1.17381 L 74.532114,223.1437 h 35.020876 l 11.1517,45.58582 c 0,0.39137 0.19569,0.97813 0.39137,1.17381 0.39137,0.58706 0.97813,0.78274 1.3695,0.78274 0.39138,0.39108 0.97813,0.39108 1.36951,0 l 14.28237,-3.71743 c 0.78244,-0.39137 1.3695,-0.97813 1.56518,-1.3695 0.58676,-0.78274 0.58676,-1.3695 0.58676,-2.15224 L 103.48793,119.64655 c -0.19569,-0.78245 -0.58706,-1.17382 -0.97843,-1.56519 -0.55906,-0.3729 -1.11841,-0.57008 -1.67747,-0.58706 -0.0277,-5.9e-4 -0.0554,0 -0.0834,0 H 83.336181 c -0.03693,0 -0.07089,-5.9e-4 -0.106332,0 -0.727938,0.017 -1.272403,0.21416 -1.458856,0.58706 z m -2.739003,86.67146 13.108257,-54.38958 12.717183,54.38958 z" />
        <path
           inkscape:connector-curvature="0"
           id="path152"
           style="fill:#999999;fill-opacity:1;fill-rule:evenodd;stroke-width:2.97847247"
           d="m 329.06849,138.03742 c -3.91282,0 -6.84751,1.36951 -9.58651,3.91282 -2.34793,2.73901 -3.71743,5.86938 -3.71743,9.39113 0,3.91282 1.3695,7.23888 3.71743,9.58681 2.739,2.739 5.67369,4.1085 9.58651,4.1085 3.52175,0 6.84781,-1.3695 9.58681,-4.1085 2.34793,-2.34793 3.71743,-5.67399 3.71743,-9.58681 0,-3.52175 -1.3695,-6.65212 -3.71743,-9.39113 -2.739,-2.54331 -6.06506,-3.91282 -9.58681,-3.91282 z" />
      </g>
      <text
         transform="scale(0.98450313,1.0157408)"
         id="text4276"
         y="348.81708"
         x="590.82617"
         style="font-style:italic;font-variant:normal;font-weight:normal;font-stretch:normal;font-size:12px;line-height:0%;font-family:Corbel;-inkscape-font-specification:'Corbel, Italic';text-align:start;letter-spacing:0px;word-spacing:0px;writing-mode:lr-tb;text-anchor:start;fill:#953337;fill-opacity:1;stroke:#96092b;stroke-width:2.01480842px;stroke-linecap:butt;stroke-linejoin:miter;stroke-opacity:1"
         xml:space="preserve"><tspan
           style="font-size:80.59235382px;line-height:1.25;letter-spacing:6.8668685px;fill:#953337;fill-opacity:1;stroke-width:2.01480842px"
           y="348.81708"
           x="590.82617"
           id="tspan4278"
           sodipodi:role="line">FORUM</tspan></text>
    </g>
  </g>
</svg>
